<svg width="16" height="17" viewBox="0 0 16 17" fill="none" xmlns="http://www.w3.org/2000/svg">
<path fill-rule="evenodd" clip-rule="evenodd" d="M2.66329 8.18799C2.66329 5.61066 4.75263 3.52132 7.32996 3.52132C9.90729 3.52132 11.9966 5.61066 11.9966 8.18799C11.9966 9.44526 11.4994 10.5864 10.6909 11.4255C10.6681 11.4431 10.6461 11.4623 10.6252 11.4833C10.6043 11.5042 10.585 11.5261 10.5675 11.549C9.72835 12.3575 8.58722 12.8547 7.32996 12.8547C4.75263 12.8547 2.66329 10.7653 2.66329 8.18799ZM11.0751 12.8759C10.0486 13.697 8.74662 14.188 7.32996 14.188C4.01625 14.188 1.32996 11.5017 1.32996 8.18799C1.32996 4.87428 4.01625 2.18799 7.32996 2.18799C10.6437 2.18799 13.33 4.87428 13.33 8.18799C13.33 9.60467 12.839 10.9067 12.0179 11.9331L14.468 14.3833C14.7284 14.6436 14.7284 15.0657 14.468 15.3261C14.2077 15.5864 13.7855 15.5864 13.5252 15.3261L11.0751 12.8759Z" fill="#2D3440"/>
</svg>
